# xmcd
#
# Track frame offsets:
#	150
#	13261
#	28134
#	41734
#	67198
#	83589
#	95078
#	106667
#	120693
#	137966
#	153071
#	168506
#	182709
#	194069
#	209273
#	236647
#
# Disc length: 3170 seconds
#
# Revision: 1
# Processed by: cddbd v1.5.2PL0 Copyright (c) Steve Scherf et al.
# Submitted via: audiograbber 1.83.01
#
DISCID=e30c6010
DTITLE=CB - CB8520-03
DYEAR=1900
DGENRE=Country
TTITLE0=Johnny Paycheck - Take This Job And Shove It
TTITLE1=Jeanne Pruett - Satin Sheets
TTITLE2=Waylon Jennings - Mommas Don't Let Your Babies Grow Up To Be Cowboys
TTITLE3=David Allen Coe - You Never Even Call Me By My Name
TTITLE4=Kenny Rogers - Lucille
TTITLE5=Willie Nelson - On The Road Again
TTITLE6=Linda Ronstadt - Silver Threads and Golden Needles
TTITLE7=Hank Williams JR - All My Rowdy Friends Are Coming Over Tonight
TTITLE8=Kenny Rogers - The Gambler
TTITLE9=Jeannie C. Riley - Harper Valley PTA
TTITLE10=George Strait - All My Ex's Live In Texas
TTITLE11=Randy Travis - Diggin' Up Bones
TTITLE12=Dolly Parton - 9 To 5
TTITLE13=Lee Greenwood - God Bless The USA
TTITLE14=Alabama - 40 Hour Work Week
TTITLE15=Data - Data
EXTD=
EXTT0=
EXTT1=
EXTT2=
EXTT3=
EXTT4=
EXTT5=
EXTT6=
EXTT7=
EXTT8=
EXTT9=
EXTT10=
EXTT11=
EXTT12=
EXTT13=
EXTT14=
EXTT15=
PLAYORDER=
